<svg width="140" height="26" viewBox="0 0 140 26" fill="red" xmlns="http://www.w3.org/2000/svg">
<path fill-rule="evenodd" clip-rule="evenodd" d="M52.3651 15.0754C56.1652 14.4777 58.6634 11.0648 58.6634 7.19452C58.6634 4.02767 56.9396 1.9167 54.5818 1.10764C53.1742 0.614787 51.6617 0.580091 48.9167 0.580091H41.4924L35.7572 25.4213H40.4018L42.654 15.6392H47.8262L50.7825 25.4205H55.6384L52.3651 15.0754ZM45.257 4.44955H48.7401C50.288 4.44955 51.2036 4.44955 51.907 4.69558C52.9621 5.08276 53.8421 6.10316 53.8421 7.61641C53.8421 8.53114 53.4904 10.8534 51.0979 11.6625C50.2533 11.944 49.2684 11.9787 47.7552 11.9787H43.4977L45.257 4.44955V4.44955ZM77.8309 21.4099H63.6865L65.2691 14.4777H76.9864L77.9011 10.5017H66.1847L67.5568 4.6254H79.8709L80.7865 0.579303H63.897L58.1618 25.4205H76.9154L77.8309 21.4099ZM102.815 12.3312H91.906L90.9912 16.3071H97.571C97.1491 18.4898 96.165 19.7555 95.4963 20.3887C94.7219 21.1284 93.2434 22.0076 90.8509 22.0076C87.1912 22.0076 84.7979 19.4385 84.7979 15.4634C84.7979 10.8534 87.9647 3.99219 93.9815 3.99219C98.3446 3.99219 98.9068 7.22922 99.1197 8.46095L103.728 7.40507C103.237 5.2594 102.216 3.21782 100.422 1.9167C98.7318 0.684969 96.1989 0.0517578 93.9468 0.0517578C84.8334 0.0517578 79.8725 8.70777 79.8725 15.7796C79.8725 21.939 83.7073 25.9488 89.7603 25.9488C93.1377 25.9488 95.0026 24.7518 96.2691 23.7314L95.7068 25.4213H99.7884L102.815 12.3312V12.3312ZM114.252 0.579303H109.572L103.838 25.4205H108.517L114.252 0.579303ZM139.294 0.579303H134.826L130.92 18.9117L123.319 0.579303H119.133L113.397 25.4205H117.936L121.807 7.19452L129.406 25.4205H133.559L139.294 0.579303V0.579303ZM10.7054 2.60117C13.8068 2.4892 16.0235 4.5631 18.1676 6.5692C20.0877 8.36475 21.9014 10.0625 24.2135 10.0625C27.8132 10.0625 33.0619 5.09459 33.2835 4.88247L32.9129 4.45586C32.8671 4.49213 28.2761 8.07771 24.9429 8.07771C22.5701 8.07771 20.6074 6.35392 18.5311 4.52999C15.9541 2.26682 13.2903 -0.0728355 9.64321 0.863973C7.2925 1.4688 4.23762 3.69806 4.10829 3.79268L4.38508 4.28159C4.42293 4.2666 8.19935 2.69185 10.7054 2.60117V2.60117ZM23.3279 15.7788C20.9196 15.7788 18.8686 14.0258 16.6977 12.1719C14.1041 9.95606 11.4222 7.66608 8.02587 8.56583C5.86127 9.1399 2.63526 11.3944 2.49805 11.4906L2.77247 11.9819C2.81111 11.9653 6.65771 10.3164 9.08175 10.303C11.7313 10.2873 13.9456 12.2413 16.0865 14.1315C18.2038 15.9996 20.2028 17.7628 22.5985 17.7628C26.1998 17.7628 31.3965 12.7042 31.6165 12.4889L31.2395 12.0678C31.1938 12.1057 26.6588 15.7788 23.3279 15.7788V15.7788ZM21.5394 23.3056C19.1675 23.3056 17.2047 21.5834 15.1277 19.7586C12.5506 17.4963 9.88687 15.1566 6.23978 16.0934C3.88907 16.699 0.834185 18.9275 0.704861 19.0229L0.981646 19.511C1.0195 19.4953 4.79592 17.9213 7.30197 17.8306C10.4034 17.7178 12.62 19.7925 14.7641 21.7979C16.6851 23.595 18.4988 25.2912 20.81 25.2912C24.4145 25.2912 29.5583 20.1427 29.776 19.9219L29.3927 19.5079C29.3478 19.5465 24.868 23.3056 21.5394 23.3056V23.3056Z" fill="#B3B3B3"/>
</svg>
