<svg width="140" height="24" viewBox="0 0 140 24" fill="none" xmlns="http://www.w3.org/2000/svg">
<path fill-rule="evenodd" clip-rule="evenodd" d="M101.822 13.1206C101.822 11.1176 101.278 9.69188 100.192 8.80948C99.1744 7.89238 97.4774 7.41766 95.1685 7.38375C93.4376 7.38375 91.7738 7.51939 90.1462 7.79065C89.863 7.82981 89.6005 7.96117 89.3994 8.16443C89.2284 8.42749 89.1345 8.73315 89.1282 9.04684V10.3708C89.1282 10.6082 89.2299 10.7107 89.3994 10.7107C91.2498 10.4036 93.1244 10.2671 94.9998 10.303C95.8822 10.303 96.7985 10.5065 97.6809 10.9134C98.2581 11.1515 98.5294 11.6601 98.5294 12.4408L98.4616 12.8816C98.4277 13.0188 98.3259 13.1206 98.1225 13.1545L93.1664 14.1386C91.5372 14.4438 90.214 14.9193 89.2638 15.5296C88.3814 16.2425 87.9051 17.2266 87.9051 18.5514C87.8712 19.06 87.9051 19.6034 88.1085 20.1806C88.3475 20.8256 88.6519 21.3682 89.0249 21.7743C89.4333 22.3515 90.214 22.7261 91.2659 22.9973C92.0466 23.133 93.2681 23.2008 94.9312 23.2347C96.8994 23.3025 98.4277 23.2347 99.4118 23.0652C100.532 22.8956 101.143 22.6922 101.38 22.4201C101.619 22.1149 101.789 21.8445 101.822 21.5377V13.1206H101.822V13.1206ZM91.2659 18.5514C91.232 18.2107 91.3677 17.8385 91.7068 17.3977C92.0813 16.9893 92.4874 16.7527 92.9298 16.6849L98.4963 15.7686V20.1814L97.919 20.317C97.0027 20.5205 96.0525 20.5883 95.0345 20.5544C94.0843 20.5544 93.2019 20.4187 92.3873 20.1136C91.6381 19.8399 91.2659 19.3321 91.2659 18.5514V18.5514ZM74.2606 20.2145L73.9893 19.9756L71.477 20.0095L70.1869 19.8738L69.474 19.5347L69.1342 18.8558L69.0664 17.9056V10.5065L69.3723 10.0649H73.3782C73.5817 10.0649 73.7173 9.96315 73.7173 9.7597V7.72284L73.3782 7.38375H69.0671V3.34394C69.0671 3.03876 68.9315 2.90234 68.6256 2.90234H67.1659C66.1818 2.90234 65.6724 3.41175 65.6724 4.4637V17.8362C65.6724 19.5671 66.0801 20.824 66.8939 21.6371C67.8102 22.4516 69.202 22.894 71.0685 22.894H72.3255L73.3774 22.7245L74.1242 22.3838L74.3276 21.7049L74.2606 20.2145V20.2145ZM126.6 7.51938C125.514 7.51938 124.46 7.65502 123.409 7.96098C122.424 8.19834 121.61 8.60603 121.067 9.21638C120.354 9.96315 119.844 10.7777 119.539 11.5592C119.198 12.6782 119.03 13.9691 118.996 15.4279C118.996 16.4136 119.131 17.4995 119.438 18.6531C119.608 19.5694 120.014 20.4179 120.558 21.2325C121.237 22.1488 122.018 22.6929 122.935 22.9295C124.054 23.1669 125.344 23.3364 126.769 23.3703C128.298 23.3703 129.586 23.3364 130.638 23.2686C131.793 23.133 132.403 22.9973 132.471 22.8278C132.572 22.76 132.642 22.4532 132.642 21.9115L132.608 20.5528C132.572 20.2815 132.471 20.1459 132.267 20.1459C130.57 20.3832 128.906 20.485 127.279 20.485C126.566 20.5528 125.954 20.485 125.377 20.3832C124.632 20.2476 124.155 20.112 123.952 19.9409C123.611 19.6696 123.341 19.4322 123.171 19.1618C122.832 18.5845 122.662 18.1421 122.662 17.8031L130.638 16.0043C131.419 15.8348 131.997 15.5974 132.369 15.2576C132.845 14.9185 133.184 14.4769 133.319 13.9683C133.524 13.492 133.626 12.8808 133.626 12.1349C133.592 11.5923 133.49 11.0151 133.285 10.5057C133.048 9.96315 132.71 9.45374 132.199 9.04605C131.69 8.60445 130.978 8.26536 130.062 8.02722C128.873 7.72362 127.72 7.51938 126.6 7.51938V7.51938ZM123.341 11.2871C123.646 10.9473 124.054 10.6768 124.632 10.5404C125.548 10.303 126.293 10.2013 126.871 10.2352C127.991 10.1674 128.839 10.3369 129.417 10.7777C129.927 11.1176 130.198 11.6262 130.232 12.1696C130.266 12.4069 130.232 12.7121 130.13 13.018C130.062 13.3232 129.891 13.5606 129.621 13.6954C129.35 13.8665 129.045 13.9683 128.806 13.9683L122.493 15.1558V14.7829C122.459 14.07 122.493 13.3563 122.629 12.6774C122.696 12.306 122.935 11.8297 123.341 11.2871V11.2871ZM105.928 7.45157L103.62 7.51938L103.349 7.5872L103.212 7.79065C103.212 7.82456 103.246 7.89237 103.246 7.96019L108.575 22.3515L108.746 22.7939L109.153 22.8956H112.412L112.819 22.7939L113.09 22.4532L118.624 7.79065C118.556 7.72284 118.419 7.65502 118.216 7.5872C117.572 7.5872 116.654 7.5872 115.365 7.62111L115.026 8.13052L111.054 19.7043H110.885L107.05 8.13052L106.641 7.62111L105.928 7.45157ZM82.5421 10.7107C83.3212 10.5017 84.0009 10.3669 84.5103 10.3708C85.4132 10.3779 86.052 10.3882 86.921 10.5065C87.126 10.5349 87.2616 10.3693 87.2261 9.96393C87.1922 9.59145 87.1922 9.21666 87.2261 8.84417C87.2585 8.50588 87.1094 8.25117 86.921 8.0635C86.7192 7.85686 86.4764 7.69487 86.2081 7.58799C86.1387 7.5596 86.1064 7.5596 86.0725 7.55408L85.869 7.52017L84.1042 7.48626C83.3575 7.47207 82.4104 7.70549 81.1858 7.96177C79.4225 8.33003 77.7421 9.82436 77.146 11.4922C76.7304 12.6553 76.6712 13.8673 76.6712 15.0565V22.5234C76.6712 22.7962 76.773 22.9319 77.0103 22.9319H79.5566C79.8279 22.9319 79.9635 22.7962 79.9635 22.5234V15.0565C79.9635 14.3436 80.0234 13.6623 80.1669 13.0204C80.4524 11.7374 81.3206 11.038 82.5421 10.7107V10.7107ZM137.428 0.628906C136.477 0.628906 136.001 1.13832 136.001 2.15635V22.4871C136.001 22.76 136.103 22.8956 136.342 22.8956H138.888C139.159 22.8956 139.295 22.76 139.295 22.4871V0.968777L138.888 0.628906H137.428ZM7.73361 2.3945C5.49331 2.3945 3.72851 3.00485 2.43842 4.19322C1.25085 5.34768 0.673619 6.80652 0.707527 8.46961C0.707527 9.96315 1.18303 11.1515 2.06543 12.067C2.91392 12.9502 4.30573 13.6276 6.3418 14.1378L12.4516 15.5288C13.1644 15.6321 13.6731 15.8356 13.8773 16.14C14.1493 16.3095 14.3189 16.6494 14.3528 17.1919C14.4206 17.9726 13.7764 18.415 12.4524 18.4489H2.94783C2.26888 18.4489 1.79417 18.6184 1.4882 18.9236C1.18303 19.2304 1.04661 19.7043 1.04661 20.3501V22.5557L1.08052 22.7608L1.4196 22.8625H12.1117C14.725 22.8625 16.694 22.2514 17.9841 21.0977C19.1717 20.0796 19.7828 18.7549 19.8507 17.024C19.7828 15.3609 19.3412 14.0716 18.4927 13.2231C17.5425 12.1711 16.1168 11.4575 14.3181 11.1192L7.97097 9.69346C7.52937 9.65955 7.08857 9.4561 6.57916 9.01451L6.3418 8.77636C6.10444 8.67463 6.03663 8.43728 6.07054 8.02959C6.07054 7.58799 6.24008 7.28282 6.57995 7.11327C6.78339 6.90904 7.19108 6.7734 7.73361 6.7734H17.2374C18.4588 6.7734 19.1039 6.12835 19.1725 4.87217V2.66577C19.1047 2.46232 18.9004 2.3945 18.4935 2.3945H7.73361ZM41.8823 2.3945H35.2694C34.6393 2.3945 33.9911 2.75566 33.5984 3.23905L26.6733 11.7619V2.71624C26.6733 2.47494 26.5337 2.3945 26.3003 2.3945H23.5498C22.3622 2.3945 21.6833 2.8014 21.6833 3.61599V22.4217C21.6833 22.6851 21.9932 22.8625 22.2534 22.8625H25.1111C25.9257 22.8625 26.6725 22.4359 26.6725 21.5377V12L33.6702 22.0921C33.9328 22.4706 34.5912 22.8625 35.1416 22.8625H39.2942C39.6853 22.8625 39.9795 22.812 40.1088 22.6236C40.2247 22.4556 40.1829 22.1843 39.9787 21.8815L33.257 11.8983L39.1625 4.22792L46.258 14.1386C46.6318 14.6819 46.8691 15.3262 46.903 16.1408V22.3688C46.903 22.7166 47.1089 22.8617 47.4834 22.8617H50.297C51.1715 22.8798 51.8134 22.4091 51.8923 21.5369V16.14C51.9262 15.6992 52.1635 15.1558 52.5712 14.5447L60.8267 2.95438C61.008 2.69968 61.0696 2.39371 60.6153 2.39371H57.0179C56.2554 2.39371 55.7617 2.50411 55.3209 3.17439L49.5171 11.9992L44.0595 3.43462C43.58 2.69021 42.9815 2.3945 41.8823 2.3945V2.3945Z" fill="#B3B3B3"/>
</svg>
