<svg width="148" height="104" viewBox="0 0 148 104" fill="none" xmlns="http://www.w3.org/2000/svg">
<path fill-rule="evenodd" clip-rule="evenodd" d="M26.4909 54.8238C26.5602 54.3341 26.6304 53.8444 26.7353 53.3547L28.4481 51.6411C29.4267 51.1514 29.4267 51.1514 29.9156 50.6617C30.2448 50.5929 30.5713 50.5114 30.8942 50.4173V49.4379H31.8728V48.4585C32.1874 48.3883 32.5021 48.3189 32.8514 48.2133C33.3403 47.7236 33.3403 47.7236 35.2636 46.7449L36.7311 45.2759C37.7097 44.7862 38.1994 44.2965 39.178 43.8076L40.1566 42.8282C42.1138 41.8488 42.6035 41.3599 43.5821 40.8702L44.0718 40.3805C47.3231 38.7718 50.5735 37.1277 53.8595 35.4843C56.7961 34.5049 60.2208 33.0713 61.6891 32.5816C62.0037 32.442 62.3184 32.267 62.6677 32.0919C66.0585 31.2868 69.484 30.4832 72.9095 29.6442C79.7613 28.6648 79.7613 28.6648 84.1647 28.1751H97.8675C101.783 29.1545 101.783 29.1545 103.25 29.6442C104.228 30.1339 105.662 30.6236 106.64 31.1125C107.13 31.2529 107.62 31.4271 108.109 31.6022C108.597 32.0919 108.597 32.0919 109.577 32.5816C113.002 33.5263 113.98 34.0152 114.96 34.2605C115.029 34.5751 115.1 34.8897 115.205 35.2398L115.693 35.7295C116.183 37.1986 116.183 37.1986 117.162 39.1574L119.608 41.6051C120.098 42.5845 120.588 43.0734 121.077 44.0528L121.565 44.5425C122.055 46.0108 122.055 46.0108 122.545 46.9902V51.8856C122.055 53.3547 121.565 54.3341 121.32 54.5793C118.384 54.5793 118.384 54.5793 115.937 54.3341C115.868 54.0186 115.799 53.704 115.692 53.3547L114.225 51.8856C114.084 51.5709 113.911 51.2563 113.735 50.9062C113.328 50.4976 112.92 50.0897 112.512 49.6823C112.198 49.5428 111.883 49.3677 111.534 49.1926L110.067 47.7236C108.773 47.0943 107.479 46.4295 106.151 45.7648C105.662 45.2751 105.662 45.2751 104.718 44.7854C104.062 44.6348 103.41 44.4715 102.761 44.2957L102.271 43.806C101.127 43.6573 99.985 43.494 98.8453 43.3163C98.5315 43.1767 98.2168 43.0017 97.8675 42.8266C96.0838 42.687 94.3024 42.512 92.4848 42.3369H80.7392C79.621 42.4765 78.4673 42.6515 77.3137 42.8266H69.029C66.5821 43.3163 62.178 43.806 60.2208 44.2957C57.2842 44.7854 55.327 45.2751 52.3904 45.7648C51.4118 46.2545 43.5821 48.703 42.6035 49.1926C41.1352 49.6823 40.1566 50.172 38.6883 50.6609C37.7097 51.1506 37.7097 51.1506 36.2414 51.6403L35.7517 52.13C34.3189 52.6197 34.3189 52.6197 31.3823 54.0888C30.753 54.2292 30.0891 54.4027 29.4251 54.5785C28.4489 54.6479 27.4695 54.7189 26.4909 54.8238ZM40.1582 34.993C39.1768 34.8471 38.198 34.6838 37.2224 34.5033C36.7327 34.0136 36.7327 34.0136 35.7541 33.5239L33.3419 31.1101C32.8475 30.9629 32.3581 30.7996 31.8744 30.6204L31.3847 30.1307C30.895 29.9912 30.4061 29.8161 29.9164 29.6411L29.4267 29.1514C29.112 29.0812 28.7974 29.011 28.4481 28.9061C28.3779 28.5915 28.3077 28.2768 28.2028 27.9267C27.9579 27.6819 27.7132 27.437 27.4687 27.1918C27.1394 27.123 26.8129 27.0412 26.4901 26.9465C26.4199 26.6319 26.3497 26.3173 26.2448 25.9671C25.7551 25.4775 25.7551 25.4774 25.2662 24.4981V21.5607L26.2448 20.5813C26.315 19.952 26.3844 19.2872 26.4901 18.6233C26.8039 18.6935 27.1193 18.7636 27.4687 18.8685H30.8942C31.3839 19.3582 31.3839 19.3582 32.3625 19.8479C33.8308 20.3376 33.8308 20.3376 34.8094 20.8273C35.2783 21.3256 35.7563 21.8154 36.243 22.2964C36.5568 22.436 36.8723 22.611 37.2216 22.7861L38.6891 24.2552C39.0037 24.3254 39.3184 24.3948 39.6677 24.4996V25.479H40.6463V26.4584C41.6249 26.7037 41.6249 26.7037 41.8694 26.9481C42.8488 28.9069 43.3377 29.3966 43.8266 30.3752L44.3163 30.8649V33.7684L43.0924 34.9922L40.1582 34.993ZM123.28 34.5033C122.951 34.4345 122.624 34.3527 122.302 34.2581C122.237 33.9391 122.155 33.6238 122.057 33.3134L121.567 32.8237C121.079 28.4172 121.079 28.4172 121.079 26.4584C122.057 24.4996 122.057 24.4996 122.302 24.2552C122.792 24.185 123.28 24.1148 123.769 24.0099V23.0305C124.083 22.9611 124.399 22.891 124.749 22.7861C125.237 22.2964 126.216 21.8067 126.706 21.317C127.02 21.1766 127.334 21.0024 127.684 20.8273L133.067 15.4414C133.38 15.3712 133.697 15.3019 134.046 15.1962V14.2168C134.36 14.1474 134.674 14.0772 135.024 13.9723L137.471 11.5239C137.785 11.3843 138.1 11.2092 138.449 11.0342L139.917 9.56507H143.308C144.042 10.2992 144.042 10.2992 144.531 11.2786V17.6439C144.672 17.9585 144.845 18.2739 145.021 18.6233V21.5615C144.707 22.1907 144.391 22.8555 144.042 23.5195C143.635 23.9282 143.227 24.3361 142.819 24.7433C141.841 25.233 141.351 25.7227 140.371 26.2124C139.903 26.7109 139.425 27.2007 138.939 27.6815C137.96 28.1712 137.471 28.6609 136.491 29.1506L135.024 30.6197L132.088 32.0887C131.598 32.5784 130.619 33.0681 130.131 33.5224C129.326 33.6619 128.523 33.837 127.683 34.0121C127.369 34.1516 127.055 34.3267 126.705 34.5018C125.587 34.5033 124.433 34.5033 123.28 34.5033ZM67.0734 23.2774C65.1162 22.7877 65.1162 22.7877 64.1376 22.298C63.8923 22.0527 63.4034 21.0741 62.9137 20.5844C62.7742 19.7801 62.5991 18.9758 62.424 18.1367L61.9343 17.647C61.7875 17.1524 61.6244 16.6627 61.4454 16.1787C60.9557 15.689 60.466 14.7096 59.9771 14.2199L58.5096 11.2818V7.36498C58.6492 7.05035 58.8242 6.73571 58.9985 6.38559C59.0687 5.58126 59.1389 4.77692 59.2438 3.93789C61.8302 4.00729 64.4514 4.07747 67.0734 4.18314C68.052 4.67283 68.052 4.67283 69.0306 4.91729C69.1 5.23192 69.1702 5.54656 69.2751 5.89668L69.7647 6.38638C70.2197 7.85547 70.2197 7.85547 70.7087 8.83407C70.849 9.6384 71.0233 10.4435 71.1983 11.2818C71.3379 11.5964 71.5122 11.911 71.6873 12.2612C71.8276 13.7303 72.0019 15.1993 72.177 16.6676V20.5844C72.0374 20.8991 71.8623 21.2145 71.6873 21.5638L70.4642 22.7877C68.052 23.2774 68.052 23.2774 67.0734 23.2774ZM101.294 21.8083C100.489 21.563 99.6859 21.3186 98.8461 21.0733C98.7777 20.7437 98.6959 20.4169 98.6009 20.0939L98.1128 19.6042V14.7081C98.4266 13.5891 98.7412 12.4346 99.0906 11.281C99.5803 10.7913 99.5803 10.7913 100.558 8.83328L102.026 7.36419C102.515 6.3848 103.005 5.8951 103.495 4.9165C103.74 4.67125 103.74 4.67126 105.172 4.4268C105.243 4.11217 105.312 3.79753 105.417 3.44741L107.62 1.24417C108.597 0.754472 108.597 0.754471 109.087 0.264775C110.381 0.194593 111.673 0.12441 113.002 0.0195312C113.072 0.334167 113.143 0.648804 113.248 0.998925L114.225 1.97832V5.4062C113.107 7.67962 111.954 9.95304 110.8 12.2604L110.31 12.7501C110.171 13.2398 109.996 13.7295 109.822 14.2192C109.332 14.7089 108.843 15.6882 108.353 16.1779C108.214 16.4926 108.039 16.8072 107.865 17.1566L105.908 19.1153C105.837 19.43 105.767 19.7446 105.662 20.0947C105.349 20.1649 105.032 20.2351 104.719 20.34C104.229 20.8297 103.251 21.3194 102.761 21.8091L101.294 21.8083ZM3.87964 90.4218H147.499V91.4919H3.87964V90.4218ZM5.27539 99.4279C5.27539 98.5195 5.41023 97.757 5.68229 97.1411C5.88475 96.6883 6.16559 96.2748 6.51186 95.9196C6.83729 95.5776 7.22867 95.3051 7.66237 95.1185C8.2183 94.8811 8.85704 94.766 9.58251 94.766C10.8955 94.766 11.9443 95.1729 12.7328 95.9875C13.5206 96.8005 13.9149 97.9344 13.9149 99.3838C13.9149 100.824 13.523 101.948 12.7407 102.763C11.9592 103.573 10.9144 103.98 9.60696 103.98C8.28218 103.98 7.22866 103.576 6.44719 102.769C5.66573 101.958 5.27539 100.845 5.27539 99.4279ZM7.12772 99.368C7.12772 100.375 7.36193 101.141 7.82639 101.663C8.29322 102.183 8.88385 102.442 9.60144 102.442C10.3167 102.442 10.9057 102.185 11.3662 101.666C11.8244 101.15 12.0547 100.375 12.0547 99.342C12.0547 98.3224 11.8307 97.5599 11.3844 97.0568C10.9365 96.5544 10.3411 96.3037 9.60144 96.3037C8.85862 96.3037 8.26167 96.5576 7.80746 97.0662C7.35562 97.5756 7.12772 98.3413 7.12772 99.368ZM15.3209 103.829V94.9174H18.2054C19.2984 94.9174 20.012 94.9639 20.3432 95.0514C20.8526 95.1855 21.2824 95.4749 21.627 95.9228C21.9708 96.3707 22.1435 96.9503 22.1435 97.6584C22.1435 98.2049 22.0442 98.6654 21.8447 99.0368C21.6669 99.3869 21.4075 99.689 21.0884 99.9176C20.8089 100.118 20.4923 100.261 20.1571 100.338C19.7281 100.422 19.106 100.467 18.2906 100.467H17.1188V103.828H15.3209V103.829ZM17.1188 96.4251V98.9525H18.1021C18.8111 98.9525 19.2858 98.9075 19.5247 98.8137C19.7636 98.7198 19.9497 98.5747 20.0869 98.376C20.2218 98.1757 20.2904 97.9462 20.2904 97.6829C20.2904 97.358 20.195 97.0914 20.0041 96.8785C19.8154 96.6686 19.5605 96.5295 19.2818 96.4843C19.0665 96.4425 18.6352 96.4243 17.9878 96.4243H17.1188V96.4251ZM23.6197 103.829V94.9174H30.2231V96.4251H25.4176V98.4012H29.8888V99.9011H25.4176V102.327H30.3934V103.828H23.6197V103.829ZM31.9233 103.829V94.9174H35.7099C36.6617 94.9174 37.3525 94.9978 37.7838 95.1579C38.2152 95.318 38.5614 95.6011 38.8208 96.0111C39.0795 96.422 39.208 96.8888 39.208 97.4155C39.208 98.0842 39.0108 98.637 38.6189 99.0731C38.2262 99.5076 37.638 99.7828 36.8565 99.8956C37.246 100.123 37.5678 100.373 37.8209 100.644C38.074 100.917 38.4139 101.397 38.8429 102.09L39.9319 103.829H37.7807L36.4811 101.888C36.019 101.195 35.7036 100.761 35.5333 100.579C35.3848 100.414 35.1991 100.287 34.9916 100.208C34.8007 100.142 34.5003 100.108 34.0855 100.108H33.7228V103.829H31.9233ZM33.7235 98.6843H35.0531C35.9157 98.6843 36.4551 98.6488 36.6704 98.5763C36.8757 98.5099 37.053 98.377 37.1743 98.1986C37.2949 98.0196 37.3572 97.798 37.3572 97.5299C37.3572 97.2294 37.276 96.9889 37.1167 96.8044C36.9574 96.6199 36.7311 96.5024 36.4386 96.4535C36.2935 96.4354 35.8558 96.4243 35.1256 96.4243H33.7235V98.6843ZM48.9341 103.829H46.9761L46.1986 101.804H42.6374L41.9033 103.829H39.9958L43.4646 94.9174H45.3667L48.9341 103.829ZM45.6221 100.303L44.3944 96.9968L43.1918 100.303H45.6221ZM50.9662 103.829V96.4251H48.3238V94.9174H55.4019V96.4251H52.7657V103.829H50.9662ZM55.9767 99.4279C55.9767 98.5195 56.1116 97.757 56.3836 97.1411C56.5858 96.6882 56.8667 96.2746 57.2132 95.9196C57.5386 95.5776 57.93 95.3051 58.3637 95.1185C58.9197 94.8811 59.5584 94.766 60.2839 94.766C61.5968 94.766 62.6464 95.1729 63.4342 95.9875C64.2227 96.8005 64.6162 97.9344 64.6162 99.3838C64.6162 100.824 64.2243 101.948 63.4428 102.763C62.6606 103.573 61.6158 103.98 60.3091 103.98C58.9843 103.98 57.9308 103.576 57.1486 102.769C56.3663 101.958 55.9767 100.845 55.9767 99.4279ZM57.8291 99.368C57.8291 100.375 58.0633 101.141 58.5277 101.663C58.9946 102.183 59.5852 102.442 60.3028 102.442C61.0188 102.442 61.6071 102.185 62.0676 101.666C62.5258 101.15 62.756 100.375 62.756 99.342C62.756 98.3224 62.5321 97.5599 62.0857 97.0568C61.6378 96.5544 61.0425 96.3037 60.302 96.3037C59.56 96.3037 58.963 96.5576 58.5088 97.0662C58.057 97.5756 57.8291 98.3413 57.8291 99.368ZM66.0262 103.829V94.9174H69.8129C70.7646 94.9174 71.4554 94.9978 71.8868 95.1579C72.3181 95.318 72.6643 95.6011 72.9237 96.0111C73.1832 96.422 73.3117 96.8888 73.3117 97.4155C73.3117 98.0842 73.1146 98.637 72.7226 99.0731C72.3307 99.5076 71.7417 99.7828 70.9602 99.8956C71.3498 100.123 71.6715 100.373 71.9246 100.644C72.1777 100.917 72.5176 101.397 72.9474 102.09L74.0356 103.829H71.8852L70.5856 101.888C70.1227 101.195 69.8081 100.761 69.6378 100.579C69.4893 100.414 69.3036 100.287 69.096 100.208C68.9052 100.142 68.6048 100.108 68.19 100.108H67.8273V103.829H66.0262ZM67.8257 98.6843H69.1552C70.0179 98.6843 70.5565 98.6488 70.7725 98.5763C70.9862 98.5038 71.1534 98.3776 71.2764 98.1986C71.3971 98.0196 71.4586 97.798 71.4586 97.5299C71.4586 97.2294 71.3774 96.9889 71.2181 96.8044C71.058 96.6199 70.8325 96.5024 70.5399 96.4535C70.3948 96.4354 69.9572 96.4243 69.2277 96.4243H67.8257V98.6843ZM78.409 103.829V94.9174H80.2061V103.829H78.409ZM81.9401 103.829V94.9174H83.69L87.3355 100.869V94.9174H89.0064V103.829H87.2014L83.6111 98.018V103.829H81.9401ZM92.909 103.829V96.4251H90.2674V94.9174H97.3463V96.4251H94.7093V103.829H92.909ZM98.5094 103.829V94.9174H105.112V96.4251H100.307V98.4012H104.778V99.9011H100.307V102.327H105.282V103.828H98.5094V103.829ZM106.812 103.829V94.9174H110.6C111.551 94.9174 112.241 94.9978 112.673 95.1579C113.104 95.318 113.45 95.6011 113.709 96.0111C113.969 96.422 114.097 96.8888 114.097 97.4155C114.097 98.0842 113.9 98.637 113.509 99.0731C113.116 99.5076 112.528 99.7828 111.745 99.8956C112.135 100.123 112.457 100.373 112.71 100.644C112.964 100.917 113.303 101.397 113.733 102.09L114.822 103.829H112.671L111.372 101.888C110.908 101.195 110.594 100.761 110.423 100.579C110.275 100.414 110.089 100.287 109.882 100.208C109.691 100.142 109.391 100.108 108.975 100.108H108.613V103.829H106.812ZM108.612 98.6843H109.942C110.805 98.6843 111.343 98.6488 111.559 98.5763C111.765 98.5099 111.942 98.377 112.063 98.1986C112.183 98.0196 112.246 97.798 112.246 97.5299C112.246 97.2294 112.164 96.9889 112.006 96.8044C111.846 96.6199 111.619 96.5024 111.327 96.4535C111.182 96.4354 110.745 96.4243 110.015 96.4243H108.613V98.6843H108.612ZM115.808 103.829V94.9174H117.558L121.203 100.869V94.9174H122.876V103.829H121.069L117.479 98.018V103.829H115.808ZM124.776 103.829V94.9174H131.378V96.4251H126.573V98.4012H131.044V99.9011H126.573V102.327H131.549V103.828H124.776V103.829ZM135.077 103.829V96.4251H132.436V94.9174H139.513V96.4251H136.878V103.829H135.077ZM140.665 94.9174H142.462V99.7426C142.462 100.51 142.485 101.007 142.528 101.234C142.606 101.599 142.79 101.891 143.078 102.111C143.368 102.333 143.763 102.443 144.266 102.443C144.777 102.443 145.162 102.339 145.421 102.13C145.681 101.922 145.837 101.665 145.888 101.362C145.941 101.056 145.967 100.553 145.967 99.8475V94.9174H147.765V99.5983C147.765 100.668 147.717 101.425 147.619 101.867C147.536 102.278 147.351 102.663 147.082 102.985C146.821 103.287 146.471 103.53 146.035 103.711C145.598 103.891 145.025 103.98 144.319 103.98C143.469 103.98 142.825 103.883 142.385 103.686C141.946 103.489 141.6 103.234 141.344 102.92C141.103 102.634 140.93 102.297 140.84 101.933C140.722 101.422 140.664 100.668 140.664 99.6708V94.9174H140.665ZM8.84836 66.3194V83.1796H15.1647V66.3194H23.242V62.2552H0.733276V66.3194H8.84836ZM33.9112 83.7529C39.9595 83.7529 44.5536 81.1467 44.5536 75.5574C44.5536 70.0264 39.9981 67.4266 33.9112 67.4266C28.4757 67.4266 23.2696 69.5785 23.2696 75.5574C23.2696 81.1467 27.8637 83.7529 33.9112 83.7529ZM33.9112 80.698C29.7768 80.698 29.3178 77.4988 29.3178 75.5566C29.3178 70.7125 32.6101 70.4743 33.9112 70.4743C35.3661 70.4743 38.5054 70.7133 38.5054 75.5566C38.5054 77.4705 38.1221 80.698 33.9112 80.698ZM50.7439 67.9935V88.713H56.5626V81.6238C58.5151 83.6031 61.6922 83.7521 62.4579 83.7521C68.0086 83.7521 71.4152 80.4284 71.4152 75.6158C71.4152 70.595 68.0473 67.4266 62.5723 67.4266C61.1947 67.4266 58.5143 67.6347 56.2945 69.8167H56.1802L56.2181 67.9935H50.7439ZM56.2945 75.5574C56.2945 71.3126 59.0892 70.4751 60.8493 70.4751C62.5723 70.4751 65.3669 71.3126 65.3669 75.5574C65.3669 78.1865 64.1802 80.6988 60.8493 80.6988C57.4427 80.698 56.2945 78.1865 56.2945 75.5574ZM84.5353 70.0864L95.1012 83.1796H101.531V62.2552H95.2148V75.257H95.1012L84.5353 62.2552H78.1424V83.1796H84.4588V70.0864H84.5353ZM122.997 78.7858C122.499 80.1303 120.737 80.6988 119.054 80.6988C115.263 80.6988 114.421 78.1573 114.382 76.6929H129.313L129.274 75.8563C129.197 74.0016 128.699 67.4273 119.245 67.4273C112.89 67.4273 108.334 70.2969 108.334 75.5582C108.334 83.3035 116.22 83.7537 118.786 83.7537C122.383 83.7537 127.36 83.0898 128.89 78.7866H122.997V78.7858ZM114.382 74.1514C114.497 72.5972 115.722 70.4751 119.167 70.4751C120.584 70.4751 123.187 70.8939 123.264 74.1514H114.382ZM133.665 71.0429H137.188V79.1738C137.188 82.2815 138.489 83.6031 142.394 83.6031C143.657 83.6031 145.648 83.4225 147.141 83.1796V80.1303C146.544 80.3055 145.925 80.3963 145.303 80.4C142.816 80.4 143.007 79.2636 143.007 78.3379V71.0437H147.141V67.9943H143.007V63.4506H137.188V67.9943H133.666V71.0429H133.665Z" fill="#B3B3B3"/>
</svg>
