<svg width="130" height="42" viewBox="0 0 130 42" fill="none" xmlns="http://www.w3.org/2000/svg">
<g id="Group" opacity="0.3">
<g id="Vector">
<path fill-rule="evenodd" clip-rule="evenodd" d="M17.5829 0.59314H22.648V6.51808H27.713V10.0726H22.648V18.9589C22.648 21.0324 22.648 22.218 24.4356 22.218H28.011V25.7725C26.5213 26.0687 25.6274 26.0687 24.1377 26.0687C17.8808 26.0687 17.5829 23.9952 17.5829 20.4392V0.59314ZM32.4809 6.51735H37.546V10.0719H37.8439C39.0365 7.9984 41.1221 5.92493 44.9954 5.92493C45.8892 5.92493 46.4851 5.92493 47.081 6.22114V10.9605C45.5913 10.6643 44.6974 10.6643 43.8036 10.6643C41.1221 10.6643 37.5467 11.8491 37.5467 16.293V25.7725H32.4816V6.51735H32.4809V6.51735ZM64.9585 18.0695C64.9585 22.2172 60.4885 23.1051 57.8078 23.1051C56.0201 23.1051 53.6365 22.8089 53.6365 20.1438C53.6365 18.662 54.5304 17.7733 58.4037 17.1809C61.9797 16.8847 63.4695 16.5885 64.9592 15.9961V18.0695H64.9585V18.0695ZM70.0243 12.1453C70.0243 9.77566 69.7263 5.62798 59.5947 5.62798C53.9337 5.62798 50.0597 7.10904 49.4645 12.4408H54.2317C54.5296 10.0711 56.3173 9.18251 59.5947 9.18251C62.5742 9.18251 65.2557 9.77493 65.2557 11.8484C65.2557 13.3295 64.3618 13.6257 57.2111 14.2181C53.9337 14.5143 48.272 15.1067 48.272 20.4378C48.272 24.29 51.2515 26.3634 56.3166 26.3634C61.9783 26.3634 64.3618 24.5862 65.5536 23.6968C65.5536 24.5862 65.8516 26.3634 69.129 26.3634C70.9166 26.3634 71.8112 26.0672 72.7043 25.7703V22.2158C72.4064 22.2158 71.5133 22.5105 71.2146 22.5105C70.9159 22.5105 70.0235 22.2158 70.0235 21.3264V12.1453H70.0243V12.1453ZM72.705 6.51735H78.3675L84.0285 20.7354L89.9874 6.51735H95.9463L87.0072 25.7717H81.3462L72.705 6.51735V6.51735ZM102.203 14.2188C103.098 10.0719 106.374 9.18251 108.759 9.18251C111.143 9.18251 114.42 10.3674 115.314 14.2188H102.203V14.2188ZM120.379 17.1816V16.5885C120.379 10.9605 117.102 5.62798 108.461 5.62798C101.607 5.62798 96.8409 9.77493 96.8409 16.2923C96.8409 21.3279 100.118 26.3642 108.759 26.3642C116.207 26.3642 118.889 22.2172 120.082 20.1438H114.42C113.527 21.6248 112.036 22.8089 108.759 22.8089C103.693 22.8089 102.203 19.5513 102.203 17.1809H120.379V17.1816V17.1816ZM124.55 0.59314H129.616V25.7717H124.55V0.59314Z" fill="#B3B3B3" style="mix-blend-mode:darken"/>
</g>
<g id="Vector_2">
<path fill-rule="evenodd" clip-rule="evenodd" d="M5.96237 13.6264C5.96237 15.1075 4.77058 16.5885 2.98291 16.5885C1.19524 16.5885 0.00271606 15.1075 0.00271606 13.6264C0.00271606 11.8491 1.1945 10.3681 2.98291 10.3681C4.77058 10.3681 5.96237 11.8491 5.96237 13.6264ZM5.96237 2.9621C5.96237 4.73937 4.77058 5.92494 2.98291 5.92494C1.19524 5.92494 0.00271606 4.7401 0.00271606 2.9621C0.00271606 1.48105 1.1945 0 2.98291 0C4.77058 0 5.96237 1.48105 5.96237 2.9621ZM14.9015 8.29462C14.9015 9.77567 13.7097 11.2567 11.922 11.2567C10.1343 11.2567 8.94256 9.77567 8.94256 8.29462C8.94256 6.51736 10.1343 5.33252 11.922 5.33252C13.7097 5.33252 14.9015 6.51736 14.9015 8.29462ZM64.6606 37.6202C63.7675 40.2868 61.9791 41.4709 59.5955 41.4709C55.7222 41.4709 54.2325 38.8057 54.2325 36.4361C54.2325 33.4732 56.0202 31.1035 59.5955 31.1035C61.9791 31.1035 64.0655 32.2891 64.3627 34.6595H62.575C62.2771 33.474 61.3832 32.5861 59.5955 32.5861C57.212 32.5861 56.3181 34.0671 56.3181 36.1406C56.3181 38.2141 57.212 39.9913 59.5955 39.9913C61.3832 39.9913 62.2771 39.102 62.575 37.6216H64.6606V37.6202V37.6202ZM66.4483 28.4384H68.236V32.8808C69.1305 31.3998 70.6195 31.1035 72.1107 31.1035C74.4928 31.1035 76.282 31.9929 76.282 34.3626V41.1762H74.4928V34.9543C74.4928 33.4732 73.5997 32.5861 71.5141 32.5861C69.7264 32.5861 68.236 33.474 68.236 35.5474V41.1769H66.4483V28.4384V28.4384ZM86.1142 37.324C86.1142 38.8057 84.3265 39.9906 82.2409 39.9906C81.0484 39.9906 80.1553 39.3974 80.1553 38.5095C80.1553 37.324 80.7504 37.0285 82.2409 36.7323H84.3265C85.5176 36.4361 85.8162 36.4361 86.1142 36.1391V37.324V37.324ZM80.4532 34.3626C80.4532 32.8808 81.6443 32.5853 83.4319 32.5853C84.9217 32.5853 86.1142 32.8801 86.1142 34.0664C86.1142 34.9543 85.5176 35.2505 84.6245 35.2505L82.2409 35.5467C79.2607 35.8429 78.0697 36.7323 78.0697 38.5095C78.0697 39.6936 78.9628 41.4709 82.2409 41.4709C83.7306 41.4709 85.5176 40.8792 86.4121 39.6936C86.4121 40.8792 87.0073 41.1754 87.9019 41.1754H89.3916V39.6936C89.0936 39.6936 88.7964 39.9899 88.7964 39.9899C88.1998 39.9899 87.9019 39.6936 87.9019 39.1005V33.7694C87.9019 31.696 85.5183 31.1028 83.4319 31.1028C80.4532 31.1028 78.962 31.9922 78.6641 34.3619H80.4532V34.3626V34.3626ZM90.8813 31.3998H92.669V32.8808C93.5621 31.3998 95.0526 31.1035 96.5423 31.1035C98.9258 31.1035 100.714 31.9929 100.714 34.3626V41.1762H98.6279V34.9543C98.6279 33.4732 97.7333 32.5861 95.9457 32.5861C94.158 32.5861 92.669 33.474 92.669 35.5474V41.1769H90.8813V31.3998V31.3998ZM103.098 31.3998H104.885V32.8808C105.779 31.3998 107.269 31.1035 108.759 31.1035C111.142 31.1035 112.632 31.9929 112.632 34.3626V41.1762H110.844V34.9543C110.844 33.4732 109.95 32.5861 108.162 32.5861C106.374 32.5861 104.885 33.474 104.885 35.5474V41.1769H103.098V31.3998V31.3998ZM116.803 35.2505C117.101 33.7694 118.591 32.5853 120.379 32.5853C122.168 32.5853 123.359 33.4732 123.657 35.2505H116.803ZM125.742 36.733V36.4368C125.742 32.5861 123.06 31.1043 120.379 31.1043C116.505 31.1043 114.718 33.474 114.718 36.1406C114.718 39.102 116.505 41.4716 120.379 41.4716C122.168 41.4716 124.55 40.5837 125.444 38.2141H123.359C122.762 39.3982 121.273 39.9913 120.379 39.9913C118.591 39.9913 116.803 38.8072 116.803 36.7337H125.742V36.733V36.733ZM127.828 28.4384H129.616V41.1762H127.828V28.4384Z" fill="#B3B3B3" style="mix-blend-mode:darken"/>
</g>
</g>
</svg>
