<svg width="148" height="82" viewBox="0 0 148 82" fill="none" xmlns="http://www.w3.org/2000/svg">
<path fill-rule="evenodd" clip-rule="evenodd" d="M87.6219 66.3378H99.0726C100.562 59.8401 97.4127 55.1166 101.363 50.9932C94.5502 50.6786 87.6219 54.802 87.6219 66.3378ZM85.8879 66.3378H74.438C72.9484 59.8401 76.0987 55.1166 72.1472 50.9932C78.962 50.6786 85.8879 54.802 85.8879 66.3378ZM29.4167 6.13831V13.7613H19.4548V66.5673H10.6387V13.7613H0.235199V6.13831H29.4167Z" fill="#B3B3B3"/>
<path fill-rule="evenodd" clip-rule="evenodd" d="M34.5765 25.9029V48.0496C34.5765 52.7116 33.8447 60.4584 40.2683 60.4584C46.4396 60.4584 45.9618 52.7116 45.9618 48.0496V25.9029H55.9237V49.9643C55.9237 61.87 50.6576 68.1154 40.2683 68.1154C29.8791 68.1154 24.6138 61.87 24.6138 49.9643V25.9029H34.5765ZM113.96 28.6147C116.055 25.358 119.46 23.3874 122.865 23.3874C131.968 23.3874 137.536 34.529 137.536 45.5854C137.536 57.07 132.166 68.2116 122.67 68.2116C119.396 68.2116 115.924 66.3277 114.091 62.8983H113.96V81.4247H104.792V24.7579H113.96V28.6147ZM128.235 45.7565C128.235 40.1001 125.356 34.0148 120.639 34.0148C115.923 34.0148 113.041 40.1001 113.041 45.7565C113.041 51.4136 115.923 57.5849 120.639 57.5849C125.356 57.5849 128.235 51.4136 128.235 45.7565ZM68.8064 66.5674V1.29896H60.1046V66.5674H68.8064ZM143.9 4.3988C145.545 6.05399 146.369 8.053 146.369 10.3966C146.369 12.7591 145.545 14.7715 143.9 16.4354C142.252 18.0993 140.253 18.9312 137.902 18.9312C135.55 18.9312 133.55 18.0993 131.905 16.4354C130.268 14.7715 129.448 12.7591 129.448 10.3966C129.448 8.053 130.271 6.05399 131.919 4.3988C133.573 2.73494 135.569 1.90221 137.902 1.90221C140.246 1.90221 142.245 2.73494 143.9 4.3988ZM144.88 3.44622C142.957 1.53159 140.631 0.573486 137.902 0.573486C135.191 0.573486 132.879 1.53159 130.965 3.44622C129.041 5.36952 128.08 7.68553 128.08 10.3958C128.08 13.1337 129.032 15.4647 130.939 17.3864C132.852 19.3192 135.172 20.286 137.902 20.286C140.631 20.286 142.956 19.3192 144.88 17.3864C146.803 15.4552 147.765 13.125 147.765 10.3958C147.765 7.67764 146.802 5.36085 144.88 3.44622ZM139.364 9.94081C138.963 10.1017 138.358 10.1821 137.552 10.1821H135.835V6.26296H137.46C138.515 6.26296 139.282 6.39702 139.761 6.66592C140.24 6.93403 140.479 7.46157 140.479 8.24856C140.479 9.08207 140.107 9.64589 139.364 9.94081ZM133.931 15.7785H135.835V11.5108H137.338C138.35 11.5108 139.057 11.6268 139.458 11.8594C140.137 12.2623 140.478 13.0895 140.478 14.3418V15.2005L140.518 15.5491C140.528 15.5948 140.536 15.635 140.546 15.6705C140.554 15.7068 140.562 15.7415 140.572 15.7785H142.355L142.289 15.6437C142.244 15.5538 142.214 15.3661 142.195 15.0807C142.179 14.8126 142.17 14.5441 142.169 14.2755V13.4838C142.169 12.9389 141.972 12.3798 141.578 11.8065C141.185 11.2341 140.563 10.8808 139.715 10.7459C140.385 10.6387 140.908 10.4652 141.284 10.2231C141.99 9.76733 142.344 9.05526 142.344 8.09006C142.344 6.72979 141.785 5.81742 140.666 5.35217C140.039 5.09273 139.057 4.96341 137.714 4.96341H133.931V15.7785Z" fill="#B3B3B3"/>
<path fill-rule="evenodd" clip-rule="evenodd" d="M84.1757 30.3438C86.8805 35.9773 81.4725 46.7933 90.7122 47.9193C89.3598 49.9475 84.8531 49.9475 82.1491 49.047C78.5438 48.1457 75.3896 44.9898 74.0364 41.6108C71.5579 35.5263 75.2192 26.0351 71.3324 21.5569C76.9667 21.5561 82.3739 25.1614 84.1757 30.3438Z" fill="#B3B3B3"/>
<path fill-rule="evenodd" clip-rule="evenodd" d="M100.852 21.5564C96.3451 27.4422 101.133 35.8925 98.3165 42.6512C97.3308 44.9057 95.894 46.1154 94.0922 46.568C91.6122 47.2438 89.4436 46.4537 88.0084 44.5398C86.0646 41.6671 86.347 31.3866 89.5856 26.7388C92.2603 22.9364 96.3451 21.3309 100.852 21.5564ZM86.0647 30.2976C86.7255 26.1656 87.2317 23.9962 90.2062 22.1786C90.2062 22.1786 89.5343 18.7089 86.0647 16.8905C82.4302 18.8737 81.5919 22.1786 81.5919 22.1786C84.5656 23.9962 85.4038 26.1656 86.0647 30.2976Z" fill="#B3B3B3"/>
</svg>
